# xmcd
#
# Track frame offsets: 
#        150
#        13852
#        25597
#        37850
#        50057
#        62877
#        77815
#        88417
#        102262
#        115417
#        142662
#        155690
#
# Disc length: 2380 seconds
#
# Revision: 2
# Processed by: cddbd v1.5.1PL0 Copyright (c) Steve Scherf et al.
# Submitted via: ExactAudioCopy v0.95a5
#
DISCID=9a094a0c
DTITLE=Various Artist - Blues Festival Vol 1
DYEAR=1988
DGENRE=Blues
TTITLE0=Muddy Waters - I'm Ready
TTITLE1=Howlin' Wolf - The Sun Is Rising
TTITLE2=Otis Spann - I'm In Love With You, Baby
TTITLE3=Johnny Otis - I Believe I'll Go Back Home
TTITLE4=John Lee Hooker - Hobo Blues
TTITLE5=Lightnin' Hopkins - Mojo Hand
TTITLE6=B.B. King - Recession Blues
TTITLE7=Willie Mabon - Willie's Blues
TTITLE8=Big Bill Broozy - Backwater Blues
TTITLE9=Sonny Terry and Brownie McGhee - Blowin' The Fuses
TTITLE10=Albert King - Be On Your Merry Way
TTITLE11=Big Joe Turner - In The Evening
EXTD=
EXTT0=
EXTT1=
EXTT2=
EXTT3=
EXTT4=
EXTT5=
EXTT6=
EXTT7=
EXTT8=
EXTT9=
EXTT10=
EXTT11=
PLAYORDER=
